<svg
xmlns:dc="http://purl.org/dc/elements/1.1/"
xmlns:cc="http://creativecommons.org/ns#"
xmlns:rdf="http://www.w3.org/1999/02/22-rdf-syntax-ns#"
xmlns:svg="http://www.w3.org/2000/svg"
xmlns="http://www.w3.org/2000/svg"
xmlns:sodipodi="http://sodipodi.sourceforge.net/DTD/sodipodi-0.dtd"
xmlns:inkscape="http://www.inkscape.org/namespaces/inkscape"
version="1.1"
id="Layer_1"
x="0px"
y="0px"
width="250px"
height="234px"
viewBox="0 0 250 234"
style="enable-background:new 0 0 250 234;"
xml:space="preserve"
sodipodi:docname="Atlanta_Braves_Insignia.svg"
inkscape:version="1.0.1 (3bc2e813f5, 2020-09-07)"><metadata
id="metadata30"><rdf:RDF><cc:Work
    rdf:about=""><dc:format>image/svg+xml</dc:format><dc:type
      rdf:resource="http://purl.org/dc/dcmitype/StillImage" /></cc:Work></rdf:RDF></metadata><defs
id="defs28" /><sodipodi:namedview
pagecolor="#ffffff"
bordercolor="#666666"
borderopacity="1"
objecttolerance="10"
gridtolerance="10"
guidetolerance="10"
inkscape:pageopacity="0"
inkscape:pageshadow="2"
inkscape:window-width="1920"
inkscape:window-height="1046"
id="namedview26"
showgrid="false"
inkscape:zoom="2.9390539"
inkscape:cx="125"
inkscape:cy="117"
inkscape:window-x="-11"
inkscape:window-y="-11"
inkscape:window-maximized="1"
inkscape:current-layer="Layer_1" />
<rect
style="fill:#13274f;fill-opacity:1"
width="250"
height="234"
id="rect21" />
<path
style="fill:#FFFFFF;"
d="M158.032,74.186c-16.428,14.499-29.483,41.849-42.397,69.566c0.257-0.021,0.495-0.04,0.756-0.076  c15.438-1.66,28.76-3.723,40.482-6.532C154.782,118.02,154.961,96.749,158.032,74.186 M159.692,155.819  c-22.566,4.161-34.92,3.928-54.048,9.248c-16.431,34.066-33.973,63.587-59.088,63.932c-33.142,0.447-45.261-26.133-40.595-41.971  c3.435-11.694,6.533-11.34,6.533-4.815c0,3.498,9.305,23.846,32.68,22.708c11.699-0.58,21.298-11.984,31.215-29.214  c-6.132,2.595-12.895,5.599-20.552,9.259c-5.427,2.595-5.843,1.717-4.812-2.753c0.756-3.295,8.746-22.624,39.228-32.965  c22.983-45.979,52.788-108.643,113.863-140.426c3.053-1.587,14.298-9.749,5.843,4.125c-28.214,46.404-36.643,86.98-35.287,118.885  c22.475-8.194,34.653-20.118,36.669-37.696c0.792-6.911,2.707-7.004,6.532-2.749c4.499,4.988,14.058,43.758-40.952,60.372  c6.85,36.735,26.821,57.305,37.519,55.56c11.097-1.802,19.607-13.748,17.892-30.612c-0.999-9.799,2.688-6.132,6.188-2.754  c10.322,9.977,9.465,42.057-11.013,50.922C197.976,237.651,170.052,207.318,159.692,155.819z"
id="path23" /></svg>