<svg
xmlns:dc="http://purl.org/dc/elements/1.1/"
xmlns:cc="http://creativecommons.org/ns#"
xmlns:rdf="http://www.w3.org/1999/02/22-rdf-syntax-ns#"
xmlns:svg="http://www.w3.org/2000/svg"
xmlns="http://www.w3.org/2000/svg"
xmlns:sodipodi="http://sodipodi.sourceforge.net/DTD/sodipodi-0.dtd"
xmlns:inkscape="http://www.inkscape.org/namespaces/inkscape"
version="1.2"
id="Layer_1"
x="0px"
y="0px"
viewBox="0 0 250.00001 250.00001"
xml:space="preserve"
sodipodi:docname="guardians hat logo.svg"
width="250"
height="250"
inkscape:version="0.92.5 (2060ec1f9f, 2020-04-08)"><metadata
id="metadata1017"><rdf:RDF><cc:Work
    rdf:about=""><dc:format>image/svg+xml</dc:format><dc:type
      rdf:resource="http://purl.org/dc/dcmitype/StillImage" /><dc:title></dc:title></cc:Work></rdf:RDF></metadata><defs
id="defs1015"><clipPath
  id="clipPath18"
  clipPathUnits="userSpaceOnUse"><path
    id="path16"
    d="M 0,1020 H 1020 V 0 H 0 Z"
    inkscape:connector-curvature="0" /></clipPath></defs><sodipodi:namedview
pagecolor="#ffffff"
bordercolor="#666666"
borderopacity="1"
objecttolerance="10"
gridtolerance="10"
guidetolerance="10"
inkscape:pageopacity="0"
inkscape:pageshadow="2"
inkscape:window-width="1920"
inkscape:window-height="1017"
id="namedview1013"
showgrid="false"
fit-margin-top="0"
fit-margin-left="0"
fit-margin-right="0"
fit-margin-bottom="0"
inkscape:zoom="2.1089196"
inkscape:cx="115.69487"
inkscape:cy="133.60105"
inkscape:window-x="1912"
inkscape:window-y="70"
inkscape:window-maximized="1"
inkscape:current-layer="Layer_1"
inkscape:pagecheckerboard="true" />

<style
id="style1237"
type="text/css">
 .st0{fill:#FFFFFF;}
 .st1{fill:#CE0E2D;}
</style><rect
style="opacity:0.99199997;fill:#0c2340;fill-opacity:1;fill-rule:evenodd;stroke:#ff5b11;stroke-width:0.55621356;stroke-opacity:0"
id="rect1255"
width="249.44379"
height="249.44379"
x="0.27810678"
y="0.27810678" /><path
inkscape:connector-curvature="0"
class="st0"
d="m 186.66771,97.843612 c 3.24967,-21.20027 8.58843,-55.089751 11.60599,-78.224358 -11.70916,-2.424361 -24.55312,-3.249675 -39.6667,-3.404426 -0.74794,1.985912 -2.19224,5.906159 -2.9144,7.917864 C 147.41368,20.006117 132.97066,13.352014 124.48538,9.9991753 103.74935,17.891247 75.018099,30.709414 52.012456,42.728067 c 4.97767,24.063075 6.370392,41.110995 6.370392,67.392103 0,39.07349 -3.610756,71.93135 -7.788908,98.9604 18.904861,9.23321 50.57631,22.46404 72.24082,29.7887 29.47922,-10.26485 56.97253,-21.38081 74.27835,-30.0466 -1.4959,-12.7666 -6.65412,-39.79565 -10.85806,-57.53993 -12.14761,0.38687 -28.78285,1.85697 -38.58347,3.40442 v 30.63981 c -5.51929,2.08908 -17.25424,5.49351 -24.55312,6.9894 -6.47355,-1.88277 -14.62354,-4.6682 -21.66451,-7.42783 -0.59319,-19.31754 -0.74794,-53.07807 -0.74794,-71.05446 0,-13.61769 0.25792,-37.422858 0.49002,-48.951478 7.68574,-3.14651 15.26833,-6.18985 23.13462,-8.84635 7.29887,2.21805 14.80408,4.87452 21.92242,7.65995 0.18054,9.67166 0.46424,26.20375 0.5674,36.26229 12.14761,0.567388 26.79695,-0.3095 39.84724,-2.11488 z"
id="path1272"
style="fill:#ffffff;stroke-width:0.25791088" /><path
inkscape:connector-curvature="0"
class="st1"
d="m 154.35148,160.54174 v 29.45344 c -10.05853,3.66231 -20.37496,6.86042 -31.5425,9.1816 -9.51692,-2.91438 -18.93066,-6.08669 -27.957535,-9.72322 -0.515821,-22.05139 -1.109023,-51.86588 -0.851107,-75.74843 0.206328,-19.033828 0.103124,-35.050088 0.593191,-53.335958 9.362161,-4.12658 20.787611,-8.43369 29.608151,-11.42547 10.13591,3.01757 19.24015,6.3962 28.67971,10.05854 0.12894,7.32467 0.49002,24.55312 0.59318,34.4311 6.88623,0.2579 16.45472,-0.43845 27.36435,-1.67642 3.43021,-22.33509 6.9378,-45.46969 10.05853,-66.618382 -8.45948,-1.470091 -18.46644,-2.037488 -27.64805,-2.166446 l -3.89446,10.522763 c -11.32229,-5.82879 -22.69615,-11.21913 -34.97271,-16.299964 -22.67036,8.872124 -43.586929,18.337467 -64.864576,29.169709 3.946041,20.29759 5.519296,36.28806 5.519296,63.703988 0,35.92697 -3.172305,69.37802 -7.092553,95.01436 21.483975,10.05853 42.400543,18.72434 64.864583,26.61641 22.97986,-8.04683 45.57284,-16.68683 67.00524,-26.9001 -1.23798,-9.13004 -5.26139,-30.63981 -8.89794,-46.63029 -8.71738,0.43844 -17.46056,1.21217 -26.5648,2.37277 z"
id="path1274"
style="fill:#ce0e2d;stroke-width:0.25791088" /></svg>