<?xml version="1.0" encoding="UTF-8" standalone="no"?>
<svg
   version="1.1"
   id="Layer_1"
   x="0px"
   y="0px"
   width="250"
   height="250"
   viewBox="0 0 250 250"
   xml:space="preserve"
   xmlns="http://www.w3.org/2000/svg"
   xmlns:svg="http://www.w3.org/2000/svg"><defs
   id="defs8" />
<g
   id="g8">
<rect
   y="0.02"
   style="fill:#000104"
   width="250"
   height="250"
   id="rect1"
   x="0" />
<path
   d="m 197.319,225.255 c 0,0.785 -0.68,1.357 -1.717,2.396 -1.274,1.281 -10.682,8.682 -15.114,11.917 -4.433,3.228 -5.653,-1.983 -6.554,-3.388 -1.915,-2.976 -15.151,-23.392 -15.151,-23.392 0,0 -18.334,23.567 -19.745,25.383 -1.403,1.823 -3.929,2.121 -6.649,-0.595 -2.678,-2.671 -12.623,-12.039 -12.623,-12.039 0,0 -0.015,-17.586 -0.023,-21.561 0,-3.838 2.354,-5.196 5.139,-2.625 l 9.487,8.445 13.146,-16.105 -2.877,-4.783 -11.153,8.529 -38.076,-23.147 c -0.652,-0.054 -1.06,-1.671 -0.301,-2.426 0.854,-0.862 4.032,-3.692 4.032,-3.692 L 99.121,153.95 c -1.106,-0.702 -6.756,-3.968 -8.373,-3.968 -0.679,-0.687 -12.093,-2.762 -21.771,-1.342 -10.083,1.465 -18.013,6.286 -22.896,9.392 -7.656,4.745 -8.732,0.663 -6.76,-5.623 1.507,-4.822 6.52,-11.093 12.116,-15.991 6.035,-5.295 14.557,-9.468 23.754,-11.65 3.582,-0.847 14.923,-2.067 21.583,0.344 l 14.179,-10.3 c 0,-1.725 -7.48,-5.158 -8.983,-5.768 C 100.524,108.449 87.074,102.437 77.358,97.943 67.615,93.426 59.52,84.576 56.491,79.976 53.63,75.635 50.429,65.999 51.727,52.449 52.498,44.392 58.193,32.246 63.564,26.524 73.234,16.095 82.942,7.847 101.497,7.832 c 15.129,-0.015 33.284,9.544 37.327,10.346 4.028,0.809 4.532,0.809 8.362,-3.037 l 14.633,9.766 -21.652,27.862 -12.26,-8.362 0.095,-1.389 c -0.008,-8.186 -8.403,-11.642 -12.867,-13.138 -6.256,-2.09 -9.888,-2.319 -14.725,-2.304 -7.366,0 -11.509,5.783 -11.62,8.903 -0.172,4.738 2.457,8.766 10.833,13.008 l 11.2,5.524 c 0,0 31.647,16.022 36.53,19.668 4.135,3.083 7.431,5.028 11.673,11.673 3.685,3.685 5.096,18.326 5.096,18.326 0,0 -0.198,7.461 -3.013,15.938 l 3.128,-0.007 c 8.064,-0.008 4.035,5.447 3.234,6.149 -2.144,1.877 -3.28,3.342 -3.28,3.342 l 0.038,30.952 c 0,0 4.791,1.404 6.149,3.273 0,0 14.907,-18.555 15.762,-19.913 0.87,-1.381 3.021,-2.228 4.639,-0.411 1.618,1.815 10.704,11.063 10.704,11.063 l 0.016,17.212 c 0,0 0.313,6.386 -4.372,3.28 l -5.409,-4.242 -18.959,23.941 9.415,14.984 11.489,-8.698 c 2.381,-2.304 3.632,-0.198 3.632,1.008"
   id="path1" />
<path
   style="fill:none;stroke:#000000;stroke-width:2.1521"
   d="m 197.319,225.255 c 0,0.785 -0.68,1.357 -1.717,2.396 -1.274,1.281 -10.682,8.682 -15.114,11.917 -4.433,3.228 -5.653,-1.983 -6.554,-3.388 -1.915,-2.976 -15.151,-23.392 -15.151,-23.392 0,0 -18.334,23.567 -19.745,25.383 -1.403,1.823 -3.929,2.121 -6.649,-0.595 -2.678,-2.671 -12.623,-12.039 -12.623,-12.039 0,0 -0.015,-17.586 -0.023,-21.561 0,-3.838 2.354,-5.196 5.139,-2.625 l 9.487,8.445 13.146,-16.105 -2.877,-4.783 -11.153,8.529 -38.076,-23.147 c -0.652,-0.054 -1.06,-1.671 -0.301,-2.426 0.854,-0.862 4.032,-3.692 4.032,-3.692 L 99.121,153.95 c -1.106,-0.702 -6.756,-3.968 -8.373,-3.968 -0.679,-0.687 -12.093,-2.762 -21.771,-1.342 -10.083,1.465 -18.013,6.286 -22.896,9.392 -7.656,4.745 -8.732,0.663 -6.76,-5.623 1.507,-4.822 6.52,-11.093 12.116,-15.991 6.035,-5.295 14.557,-9.468 23.754,-11.65 3.582,-0.847 14.923,-2.067 21.583,0.344 l 14.179,-10.3 c 0,-1.725 -7.48,-5.158 -8.983,-5.768 C 100.524,108.449 87.074,102.437 77.358,97.943 67.615,93.426 59.52,84.576 56.491,79.976 53.63,75.635 50.429,65.999 51.727,52.449 52.498,44.392 58.193,32.246 63.564,26.524 73.234,16.095 82.942,7.847 101.497,7.832 c 15.129,-0.015 33.284,9.544 37.327,10.346 4.028,0.809 4.532,0.809 8.362,-3.037 l 14.633,9.766 -21.652,27.862 -12.26,-8.362 0.095,-1.389 c -0.008,-8.186 -8.403,-11.642 -12.867,-13.138 -6.256,-2.09 -9.888,-2.319 -14.725,-2.304 -7.366,0 -11.509,5.783 -11.62,8.903 -0.172,4.738 2.457,8.766 10.833,13.008 l 11.2,5.524 c 0,0 31.647,16.022 36.53,19.668 4.135,3.083 7.431,5.028 11.673,11.673 3.685,3.685 5.096,18.326 5.096,18.326 0,0 -0.198,7.461 -3.013,15.938 l 3.128,-0.007 c 8.064,-0.008 4.035,5.447 3.234,6.149 -2.144,1.877 -3.28,3.342 -3.28,3.342 l 0.038,30.952 c 0,0 4.791,1.404 6.149,3.273 0,0 14.907,-18.555 15.762,-19.913 0.87,-1.381 3.021,-2.228 4.639,-0.411 1.618,1.815 10.704,11.063 10.704,11.063 l 0.016,17.212 c 0,0 0.313,6.386 -4.372,3.28 l -5.409,-4.242 -18.959,23.941 9.415,14.984 11.489,-8.698 c 2.381,-2.304 3.632,-0.198 3.632,1.008 z"
   id="path2" />
<path
   style="fill:#ffffff"
   d="m 72.716,68.699 c 4.921,4.089 15.209,10.3 18.368,11.849 7.366,3.624 15.942,8.751 19.775,11.482 5.653,4.028 6.26,10.482 6.466,11.284 0.202,0.801 0.015,10.49 -1.598,13.313 -0.004,-2.22 -4.139,-7.049 -7.271,-8.194 -0.335,-0.122 -8.88,-4.524 -10.09,-5.127 C 97.153,102.696 83.84,97.096 82.428,96.089 82.074,95.83 76.893,93.846 71.759,90.459 67.551,87.689 63.565,83.798 61.028,80.373 55.276,72.622 54.36,63.436 54.352,58.202 c 0,-3.128 0.725,-7.751 1.809,-11.307 C 58.373,39.639 61.592,36 61.592,36 c -1.309,1.32 -1.194,14.427 1.335,19.974 1.309,4.837 9.789,12.725 9.789,12.725"
   id="path3" />
<path
   style="fill:#ffffff"
   d="m 127.209,105.717 c 4.039,4.036 16.956,11.452 19.375,12.665 2.418,1.206 9.27,5.371 11.101,5.928 2.197,0.664 6.858,-0.069 6.858,-0.069 l -3.822,4.242 0.03,35.698 c 6.653,0 8.973,4.021 8.072,4.021 -1.007,0.015 -3.021,1.221 -3.83,1.617 -0.809,0.412 -12.299,9.095 -12.299,9.095 l -19.821,14.541 c 0,0 -31.41,-18.936 -32.218,-19.531 -0.302,-0.305 -1.515,-0.755 -1.515,-0.755 0.958,-0.656 1.19,-0.68 1.465,-0.916 0.706,-0.603 1.663,-0.999 1.66,-4.173 0,-0.809 -0.039,-39.536 -0.039,-39.536 -0.003,-1.716 -0.606,-2.822 -0.606,-2.822 l 22.869,-17.167 c 1.06,-1.06 2.72,-2.838 2.72,-2.838"
   id="path4" />
<path
   d="m 120.277,129.124 7.152,-5.249 c 6.664,5.539 17.452,9.369 17.56,10.88 0.13,1.907 0.03,30.456 0.03,30.456 l -12.161,9.888 -12.543,-7.645"
   id="path5" />
<path
   style="fill:none;stroke:#000000;stroke-width:0.267"
   d="m 120.277,129.124 7.152,-5.249 c 6.664,5.539 17.452,9.369 17.56,10.88 0.13,1.907 0.03,30.456 0.03,30.456 l -12.161,9.888 -12.543,-7.645 z"
   id="path6" />
<path
   style="fill:#ffffff"
   d="m 129.463,35.603 c 1.931,1.93 2.323,7.599 2.323,7.599 l 7.87,5.027 17.12,-22.407 -9.285,-6.241 c -2.616,2.823 -7.659,3.037 -9.674,2.03 -2.015,-1.007 -19.337,-7.294 -21.79,-8.072 -4.643,-1.48 -14.725,-2.579 -20.172,-1.771 -5.443,0.809 -14.385,2.472 -21.37,9.903 -8.156,8.682 -8.255,15.64 -8.251,19.371 0.004,5.852 1.53,13.58 8.087,20.134 9.453,9.43 23.815,15.335 27.046,17.12 5.737,3.159 23.819,12.604 26.432,14.115 11.101,6.447 15.343,13.298 14.138,21.973 -1.114,8.049 -8.255,14.122 -8.255,14.122 0,0 -9.163,7.874 -14.206,7.882 -3.636,0 -13.386,-6.409 -22.896,-8.011 -9.083,-1.534 -14.603,-1.435 -21.782,0.335 -7.969,1.983 -16.338,5.203 -24.193,13.085 -8.869,8.888 -8.759,14.839 -8.759,14.839 l 8.865,-5.249 c 7.416,-4.166 17.186,-6.676 24.098,-6.684 17.952,-0.015 26.527,5.623 27.943,8.042 1.468,2.51 16.334,-4.15 16.334,-4.15 4.169,-0.008 18.7,-6.623 25.902,-13.84 3.677,-3.686 10.582,-8.515 13.694,-18.372 4.524,-14.328 1.32,-28.137 -9.315,-36.033 -7.667,-5.699 -38.944,-21.568 -38.944,-21.568 0,0 -18.943,-9.27 -20.988,-11.307 -1.465,-1.465 -4.44,-3.731 -4.444,-10.895 -0.011,-4.265 4.746,-8.972 6.794,-9.941 3.277,-1.564 4.349,-2.297 10.986,-2.403 3.757,-0.054 7.24,0.854 7.721,0.9 4.132,0.427 13.921,3.646 18.971,10.467"
   id="path7" />
<polyline
   style="fill:#ffffff"
   points="125.614,153.394 137.329,145.047 181.168,214.787 193.466,205.494 193.489,224.857     178.177,237.172 132.11,164.006 125.629,168.316  "
   id="polyline7" />
<polyline
   style="fill:#ffffff"
   points="188.568,147.412 198.654,156.476 198.677,172.611 191.208,166.569 136.017,236.004     122.891,223.919 122.875,204.35 134.384,214.833  "
   id="polyline8" />
<path
   style="fill:#ffffff"
   d="m 211.54,242.207 h -1.313 v -5.111 h -0.022 l -1.861,5.111 h -1.267 l -1.809,-5.111 h -0.03 v 5.111 h -1.313 v -6.424 h 2.273 l 1.504,4.196 h 0.03 l 1.556,-4.196 h 2.251 m -8.78,1.145 h -1.938 v 5.279 h -1.313 v -5.279 h -1.938 v -1.145 h 5.188 v 1.145 z"
   id="path8" />
</g>
<rect
   style="fill:#000000;stroke:#000000;stroke-width:4.5"
   id="rect10"
   width="22.650297"
   height="10.795936"
   x="194.11516"
   y="233.70026" /></svg>