<?xml version="1.0" encoding="UTF-8" standalone="no"?>
<svg
   height="200"
   width="200"
   version="1.1"
   id="svg14"
   xmlns="http://www.w3.org/2000/svg"
   xmlns:svg="http://www.w3.org/2000/svg">
  <defs
     id="defs14" />
  <rect
     height="200"
     width="200"
     y="0"
     x="0"
     fill="#072854"
     id="rect1" />
  <path
     d="M 97.38942,21.947985 78.240334,80.380406 H 17.00759 l 50.014212,36.290904 -19.294398,58.49399 49.662016,-36.32784 49.79994,36.35247 -19.08751,-58.39547 50.61269,-36.414054 h -62.61936 z"
     fill="#f48412"
     id="path1" />
  <path
     d="M 165.26708,84.752062 H 114.80216 L 116.09518,80.380406 97.38942,21.947985 V 106.80738 L 47.727404,175.1653 97.38942,138.83746 147.18936,175.18993 128.10185,116.79446 178.71454,80.380406 Z"
     fill="#ea5b18"
     id="path2" />
  <path
     d="M 67.021802,116.67131 72.366306,114.93496 30.730897,85.158442 17.00759,80.380406 Z"
     fill="#ec6e1c"
     id="path3" />
  <path
     d="m 134.61623,136.38686 -2.53679,-7.88129 v 6.98233 z"
     fill="#072854"
     id="path4" />
  <path
     d="m 60.194629,137.23656 2.528172,-7.88129 v 6.98233 z"
     fill="#072854"
     id="path5" />
  <path
     d="m 51.636034,139.30541 v 13.9031 h 39.780842 v -13.9031 L 80.43232,135.37707 v -16.87089 h 33.92652 v 16.87089 l -10.98456,3.92834 v 13.9031 h 39.80054 v -13.89079 l -10.97224,-3.92833 V 83.816158 l 10.97224,-3.928333 V 65.960097 h -39.80054 v 13.927728 l 10.98456,3.928333 V 100.68706 H 80.420005 V 83.816158 L 91.379932,79.887825 V 65.972412 H 82.870595 51.588008 v 13.927727 l 10.983324,3.916019 v 23.951752 5.35682 22.27697 z"
     fill="#ffffff"
     id="path6" />
  <g
     fill="#cac9c9"
     id="g13">
    <path
       d="M 143.19945,79.875507 V 65.957631 l -3.53427,3.552741 v 7.865287 l -10.97224,3.928333 v 56.572928 l 3.53427,-2.49985 V 113.11241 84.21022 83.803841 Z"
       id="path7" />
    <path
       d="m 143.19945,139.30541 -3.53427,2.48753 v 7.86898 h -32.70737 l -3.5589,3.54658 h 39.80054 z"
       id="path8" />
    <path
       d="m 80.456949,118.50617 h 7.696578 26.229933 l 3.54659,-3.53427 H 76.910365 v 22.89271 l 3.546584,-2.47522 v -6.23115 z"
       id="path9" />
    <path
       d="m 91.42919,142.74116 v -3.43575 l -3.546583,2.47521 v 7.89362 H 55.171534 l -3.525648,3.53426 h 2.935783 8.493328 13.946199 14.407994 z"
       id="path10" />
    <path
       d="M 66.149933,81.328621 55.162914,77.400288 51.63234,79.900136 62.615665,83.82847 Z"
       id="path11" />
    <path
       d="m 106.94549,77.387973 -3.54658,2.499849 10.98455,3.928333 3.54659,-2.487534 z"
       id="path12" />
    <path
       d="M 91.453819,79.875507 V 65.963788 l -3.546583,3.545352 v 7.866519 l -10.972242,3.928333 v 22.905018 l 3.546584,-3.53427 V 83.803841 Z"
       id="path13" />
  </g>
  <path
     d="m 157.93054,162.85746 h -1.13625 v -4.42275 l -1.61808,4.42275 h -1.09309 l -1.55337,-4.42275 v 4.42275 h -1.14344 v -5.559 h 1.97046 l 1.30166,3.63169 1.352,-3.63169 h 1.95607 v 5.559 z m -7.60856,-4.56657 h -1.68281 v 4.56657 h -1.13625 v -4.56657 h -1.67561 v -0.99243 h 4.49467 z"
     fill="#ea5b18"
     id="path14" />
  <rect
     style="fill:#072854;fill-opacity:1;stroke:#072854;stroke-width:4.5;stroke-opacity:1"
     id="rect14"
     width="11.196357"
     height="5.3886209"
     x="147.82784"
     y="158.06621" />
</svg>