<svg
viewBox="0 0 300.00001 299.99999"
version="1.1"
id="svg10"
sodipodi:docname="t158_header_primary.svg"
width="300"
height="300"
inkscape:version="1.2.1 (9c6d41e410, 2022-07-14)"
xmlns:inkscape="http://www.inkscape.org/namespaces/inkscape"
xmlns:sodipodi="http://sodipodi.sourceforge.net/DTD/sodipodi-0.dtd"
xmlns="http://www.w3.org/2000/svg"
xmlns:svg="http://www.w3.org/2000/svg">
<defs
  id="defs14" />
<sodipodi:namedview
  id="namedview12"
  pagecolor="#ffffff"
  bordercolor="#000000"
  borderopacity="0.25"
  inkscape:showpageshadow="2"
  inkscape:pageopacity="0.0"
  inkscape:pagecheckerboard="0"
  inkscape:deskcolor="#d1d1d1"
  showgrid="false"
  inkscape:zoom="0.8536554"
  inkscape:cx="60.328793"
  inkscape:cy="97.228929"
  inkscape:window-width="1920"
  inkscape:window-height="1009"
  inkscape:window-x="1912"
  inkscape:window-y="-8"
  inkscape:window-maximized="1"
  inkscape:current-layer="svg10" />
<rect
  style="fill:#12284b;fill-opacity:1;stroke:none;stroke-width:2.29952;stroke-opacity:0.995496"
  id="rect354"
  width="300"
  height="300"
  x="0"
  y="0" />
<g
  id="g300"
  transform="matrix(1.6310268,0,0,1.6310268,19.000618,9.9999991)">
 <path
    d="m 157.271,50.016 v 21.653 c 0,18.072 -2.956,29.02 -17.146,59.029 -14.942,31.592 -33.366,40.973 -55.415,40.973 -14.495,0 -28.127,-4.775 -39.138,-13.594 l -0.099,0.037 -2.456,-2.2 -0.455,-0.401 c -3.126,-2.791 -5.788,-5.797 -8.083,-8.885 a 27.104,27.104 0 0 1 -0.567,-0.769 c -0.033,-0.042 -0.07,-0.087 -0.091,-0.132 -0.141,-0.186 -0.273,-0.376 -0.409,-0.562 a 61.532,61.532 0 0 1 -3.626,-5.764 11.327,11.327 0 0 1 -0.36,-0.641 C 25.8,132.227 23.406,125.728 21.397,120.287 20.822,118.732 20.281,117.264 19.748,115.9 15.588,105.212 7.533,84.328 3.634,73.802 -0.418,62.874 -1.038,55.118 1.555,47.862 4.333,40.097 10.548,33.883 19.024,26.95 27.516,20 34.801,14.232 44.869,6.964 51.174,2.41 57.938,0 64.429,0 c 2.749,0 5.346,0.442 7.727,1.311 0.426,0.157 0.897,0.326 1.514,0.558 2.187,0.827 4.13,1.951 5.805,3.336 0.174,-0.099 0.339,-0.199 0.5,-0.294 4.626,-2.704 9.82,-4.13 15.017,-4.13 4.11,0 8.137,0.889 11.651,2.567 0.761,0.364 1.203,0.587 1.708,0.86 l 0.885,0.459 c 2.762,1.414 5.139,3.225 7.058,5.33 3.076,-1.03 6.061,-1.551 8.91,-1.551 4.337,0 8.393,1.187 12.056,3.519 l 0.873,0.554 c 1.674,1.067 2.518,1.6 3.82,2.51 9.934,6.876 15.318,14.488 15.318,34.987"
    fill="#ffc52f"
    id="path2" />
 <path
    d="m 138.285,20.33 c -1.398,-0.967 -2.212,-1.472 -4.49,-2.927 -4.428,-2.824 -10.299,-3.754 -18.308,-0.174 -0.529,0.236 -1.026,0.455 -1.513,0.674 -1.782,-3.651 -4.941,-6.098 -7.674,-7.496 -1.121,-0.575 -1.431,-0.761 -2.44,-1.241 -5.437,-2.601 -13.297,-2.977 -20.635,1.311 -1.476,0.86 -3.407,2.005 -5.069,2.985 C 76.461,10.568 73.848,8.827 71.396,7.901 70.809,7.682 70.358,7.516 69.945,7.367 64.529,5.391 56.607,6.441 48.644,12.184 39.164,19.035 32.205,24.489 23.109,31.935 6.471,45.551 2.936,53.374 9.68,71.562 c 3.704,10.001 11.568,30.414 16.075,41.999 2.584,6.64 5.284,15.253 10.159,23.567 h 0.004 a 64.02,64.02 0 0 0 1.394,2.274 c 0.128,0.199 0.264,0.393 0.393,0.587 2.216,3.361 4.846,6.615 8.013,9.633 0.252,0.24 0.508,0.488 0.765,0.724 0.132,0.12 0.248,0.244 0.38,0.36 l 0.012,-0.013 c 9.927,9.038 23.075,14.533 37.836,14.533 27.077,0 49.027,-21.955 49.027,-49.023 v -0.054 c 0,-25.845 -20.95,-46.795 -46.795,-46.795 -14.041,0 -28.148,8.116 -36.467,20.917 A 25407.636,25407.636 0 0 0 33.669,49.215 c -3.068,-7.467 -2.365,-11.25 2.323,-15.595 2.394,-2.22 5.305,-4.441 8.538,-6.632 3.303,-2.237 7.029,-0.918 7.029,3.448 V 76.68 C 59.1,69.068 68.349,64.111 80.195,61.924 L 80.013,23.75 c 0.844,-0.521 1.633,-1.005 2.225,-1.348 3.022,-1.753 5.185,0.19 5.185,3.006 v 35.541 c 0.186,0 0.376,-0.008 0.562,-0.008 a 54.114,54.114 0 0 1 27.396,7.426 V 28.525 c 0.756,-0.306 1.468,-0.591 2.018,-0.81 3.027,-1.203 5.073,0.674 5.073,3.411 0,2.737 -0.211,42.238 -0.211,42.238 11.122,9.174 18.341,22.678 19.478,37.902 5.305,-11.292 9.084,-21.81 9.084,-39.597 V 50.016 C 150.821,31.986 146.732,26.177 138.285,20.33 M 86.517,88.563 c 15.608,0 28.259,12.656 28.259,28.26 0,15.604 -12.652,28.26 -28.259,28.26 -15.604,0 -28.256,-12.656 -28.256,-28.26 0,-15.604 12.651,-28.26 28.256,-28.26"
    fill="#12284b"
    id="path4" />
 <path
    d="m 65.087,116.824 c 0,-5.127 1.807,-9.836 4.817,-13.532 5.991,7.988 5.991,19.073 0,27.061 a 21.352,21.352 0 0 1 -4.817,-13.529 m 8.563,17.138 c 7.885,-10.022 7.885,-24.257 0.004,-34.279 a 21.31,21.31 0 0 1 12.862,-4.308 21.33,21.33 0 0 1 12.867,4.308 c -7.885,10.022 -7.885,24.257 0,34.279 A 21.324,21.324 0 0 1 86.516,138.27 21.323,21.323 0 0 1 73.65,133.962 m 29.48,-3.61 c -5.991,-7.988 -5.991,-19.073 0,-27.061 3.01,3.696 4.821,8.405 4.821,13.532 0,5.127 -1.811,9.833 -4.821,13.529"
    fill="#ffffff"
    id="path6" />
</g>
</svg>