<?xml version="1.0" encoding="UTF-8" standalone="no"?>
<svg
   id="Layer_1"
   xml:space="preserve"
   height="250"
   viewBox="0 0 250 250"
   width="250"
   version="1.1"
   y="0px"
   x="0px"
   xmlns="http://www.w3.org/2000/svg"
   xmlns:svg="http://www.w3.org/2000/svg"><defs
   id="defs5" />
<rect
   y="0.02"
   width="250"
   height="250"
   fill="#003278"
   id="rect1"
   x="0" />
<g
   fill="#c0111f"
   id="g4">
    <path
   d="m 93.208,42.21 v -4.345 h -0.42 c -31.303,0 -44.075,10.864 -44.113,37.792 l -0.039,6.134 H 22.461 L 36.575,95.02 h 24.658 l 0.031,-4.94 c 0,-27.572 2.701,-44.955 31.944,-47.87 z"
   id="path1" />
    <path
   d="m 163.54,107.05 -6.919,1.953 c -0.152,0.042 -15.198,4.395 -15.198,14.622 v 60.257 c 0,4.09 1.694,6.82 9.873,6.82 h 4.257 c 0.016,-0.381 0.03,-0.777 0.016,-1.189 v -60.246 c 0,-12.318 17.06,-17.04 17.06,-17.04 0,0 -4.65,-1.83 -9.09,-5.17 z"
   id="path2" />
    <path
   d="m 141.42,38.022 v 50.583 c 0,9.51 15.281,15.59 15.435,15.651 l 6.272,2.453 c -3.915,-3.037 -7.562,-7.21 -7.562,-12.455 V 43.052 l 2.418,0.153 c 9.393,0.801 16.167,3.289 20.989,6.936 -7.82,-7.809 -20.39,-12.079 -37.56,-12.12 z"
   id="path3" />
    <polygon
   points="193.1,81.792 207.96,95.864 227.54,95.864 227.54,20.406 214.08,7.833 214.08,81.792 "
   id="polygon3" />
    <polygon
   points="88.409,242.21 178.65,242.21 178.65,206.82 166.73,195.71 166.73,227.57 72.922,227.57 "
   id="polygon4" />
</g>
<path
   d="m 43.701,75.356 c 0,-29.396 15.152,-42.502 49.087,-42.502 h 5.432 v 55.751 c 0,9.563 -6.927,15 -11.894,17.853 5.005,2.563 11.894,7.614 11.894,17.17 v 59.708 c 0,7.751 -5.34,12.374 -14.282,12.374 H 72.921 v 26.855 h 88.782 V 195.71 H 151.29 c -9.873,0 -14.877,-3.967 -14.877,-11.825 v -60.257 c 0,-9.46 8.041,-14.657 13.626,-17.273 -5.524,-3.086 -13.626,-8.946 -13.626,-17.75 V 32.721 l 2.64,0.145 c 0,0 2.387,0.13 2.251,0.13 32.92,0 51.811,14.881 51.811,40.836 0,0 -0.016,1.488 -0.03,2.96 h 15.982 V 7.837 H 22.457 v 68.955 h 21.408"
   fill="#ffffff"
   id="path4" />
<path
   d="m 196.91,232.86 h -3.38 v 9.247 h -2.305 v -9.247 h -3.387 v -2.006 h 9.071 v 2.01 m 15.39,9.24 h -2.297 v -8.957 h -0.053 l -3.251,8.957 h -2.22 l -3.158,-8.957 h -0.046 v 8.957 h -2.289 v -11.253 h 3.967 l 2.625,7.347 h 0.053 l 2.725,-7.347 h 3.944 v 11.25 z"
   fill="#ffffff"
   id="path5" />
<rect
   style="fill:#003278;fill-opacity:1;stroke:#003278;stroke-width:4.5;stroke-opacity:1"
   id="rect5"
   width="34.504658"
   height="17.781542"
   x="184.80101"
   y="226.29128" /></svg>